<?xml version="1.0" standalone="no"?><!DOCTYPE svg PUBLIC "-//W3C//DTD SVG 1.1//EN" "http://www.w3.org/Graphics/SVG/1.1/DTD/svg11.dtd"><svg t="1710943392595" class="icon" viewBox="0 0 1024 1024" version="1.1" xmlns="http://www.w3.org/2000/svg" p-id="1501" xmlns:xlink="http://www.w3.org/1999/xlink" width="200" height="200"><path d="M225.834667 268.501333a42.666667 42.666667 0 0 1 60.330666 0L512 494.336l225.834667-225.834667a42.666667 42.666667 0 1 1 60.330666 60.330667l-256 256a42.666667 42.666667 0 0 1-60.330666 0l-256-256a42.666667 42.666667 0 0 1 0-60.330667z m0 256a42.666667 42.666667 0 0 1 60.330666 0L512 750.336l225.834667-225.834667a42.666667 42.666667 0 1 1 60.330666 60.330667l-256 256a42.666667 42.666667 0 0 1-60.330666 0l-256-256a42.666667 42.666667 0 0 1 0-60.330667z" fill="#ffffff" p-id="1502"></path></svg>