<?xml version="1.0" encoding="utf-8"?>
<!-- Generator: Adobe Illustrator 23.0.4, SVG Export Plug-In . SVG Version: 6.00 Build 0)  -->
<svg version="1.1" id="图层_1" xmlns="http://www.w3.org/2000/svg" xmlns:xlink="http://www.w3.org/1999/xlink" x="0px" y="0px"
	 width="30px" height="30px" viewBox="0 0 30 30" style="enable-background:new 0 0 30 30;" xml:space="preserve">
<style type="text/css">
	.st0{fill-rule:evenodd;clip-rule:evenodd;fill:#FF0000;}
	.st1{fill:#FFFFFF;}
	.st2{fill:#FF0000;}
</style>
<title>Group 20</title>
<circle id="Oval-Copy-3" class="st0" cx="15" cy="15" r="15"/>
<g id="Group-4" transform="translate(6.000000, 9.000000)">
	<path id="Path" class="st1" d="M17.6,2c-0.2-0.8-0.8-1.4-1.6-1.6C14.6,0,9,0,9,0S3.4,0,2,0.4C1.2,0.6,0.6,1.2,0.4,2
		c-0.4,2.5-0.6,6.3,0,8.6C0.6,11.4,1.2,12,2,12.2c1.4,0.4,7,0.4,7,0.4s5.6,0,7-0.4c0.8-0.2,1.4-0.8,1.6-1.6
		C18.1,8.1,18.2,4.4,17.6,2z"/>
	<polygon class="st2" points="7.2,9 11.9,6.3 7.2,3.6 	"/>
</g>
</svg>
